<svg width="40" height="40" viewBox="0 0 40 40" fill="none" xmlns="http://www.w3.org/2000/svg">
<defs>
<linearGradient id="paint0_linear_246_13" x1="23.6667" y1="10.6667" x2="16.3333" y2="30" gradientUnits="userSpaceOnUse">
<stop stop-color="#FE007B"/>
<stop offset="0.463771" stop-color="#FD6BDE"/>
<stop offset="0.755208" stop-color="#B62AE2" stop-opacity="0.9"/>
<stop offset="1" stop-color="#6B17D6"/>
</linearGradient>
<linearGradient id="paint1_linear_246_13" x1="27.3333" y1="1.33333" x2="12.6667" y2="40" gradientUnits="userSpaceOnUse">
<stop stop-color="#FE007B"/>
<stop offset="0.463771" stop-color="#FD6BDE"/>
<stop offset="0.755208" stop-color="#B62AE2" stop-opacity="0.9"/>
<stop offset="1" stop-color="#6B17D6"/>
</linearGradient>
</defs>
<path d="M22.2872 16.6889L23.3093 17.7111L13.244 27.7778H12.2219V26.7556L22.2872 16.6889ZM26.2866 10C26.0089 10 25.72 10.1111 25.509 10.3222L23.4759 12.3556L27.642 16.5222L29.675 14.4889C30.1083 14.0556 30.1083 13.3556 29.675 12.9222L27.0754 10.3222C26.8532 10.1 26.5755 10 26.2866 10ZM16.6667 19.1667L10 25.8333V30H14.1661L26.4533 17.7111L22.2872 13.5444L16.6667 19.1667Z" fill="url(#paint0_linear_246_13)"/>
<rect x="0.5" y="0.5" width="39" height="39" rx="6.5" stroke="url(#paint1_linear_246_13)"/>
</svg>
