<svg width="106" height="91" viewBox="0 0 106 91" fill="none" xmlns="http://www.w3.org/2000/svg">
<defs>
<linearGradient id="paint0_linear_78_31" x1="72.4333" y1="3.03333" x2="42.8084" y2="94.0094" gradientUnits="userSpaceOnUse">
<stop stop-color="#FE007B"/>
<stop offset="0.463771" stop-color="#FD6BDE"/>
<stop offset="0.755208" stop-color="#B62AE2" stop-opacity="0.9"/>
<stop offset="1" stop-color="#6B17D6"/>
</linearGradient>
</defs>
<path d="M98.2684 8.98068C92.992 3.1892 85.6991 0 77.7334 0C71.4759 0 65.6221 2.4747 60.8051 7.15629C57.5915 10.2797 54.9399 14.251 53.0002 18.8127C51.0601 14.251 48.4089 10.2799 45.1953 7.15629C40.3783 2.4747 34.5245 0 28.267 0C20.3011 0 13.0084 3.18941 7.732 8.98088C2.81811 14.3736 0 21.7391 0 29.189C0 38.1344 2.78498 46.963 8.27732 55.4306C12.6268 62.1358 18.6759 68.6271 26.2569 74.7246C39.1024 85.0564 51.7454 90.6193 52.2773 90.8509C52.7333 91.0497 53.2667 91.0497 53.7225 90.8509C54.2546 90.6193 66.8974 85.0564 79.7429 74.7246C87.3239 68.6271 93.373 62.1358 97.7225 55.4306C103.215 46.963 106 38.1344 106 29.189C106 21.7391 103.182 14.3736 98.2684 8.98068Z" fill="url(#paint0_linear_78_31)"/>
</svg>
