<svg width="20" height="18" viewBox="0 0 20 18" fill="none" xmlns="http://www.w3.org/2000/svg">
<path d="M18.5412 1.7764C17.5457 0.630832 16.1696 0 14.6667 0C13.486 0 12.3815 0.489501 11.4727 1.41553C10.8663 2.03335 10.366 2.81888 10 3.72119C9.63398 2.81888 9.13375 2.03339 8.52742 1.41553C7.61855 0.489501 6.51406 0 5.3334 0C3.83039 0 2.45441 0.630871 1.45887 1.77644C0.531719 2.84312 0 4.30004 0 5.77364C0 7.54308 0.525469 9.28939 1.56176 10.9643C2.38242 12.2906 3.52375 13.5746 4.95414 14.7807C7.37781 16.8243 9.76328 17.9247 9.86363 17.9705C9.94969 18.0098 10.0503 18.0098 10.1363 17.9705C10.2367 17.9247 12.6221 16.8243 15.0458 14.7807C16.4762 13.5746 17.6175 12.2906 18.4382 10.9643C19.4745 9.28939 20 7.54308 20 5.77364C20 4.30004 19.4683 2.84312 18.5412 1.7764Z" fill="white" fill-opacity="0.85"/>
</svg>
