<svg width="24" height="23" viewBox="0 0 24 23" fill="none" xmlns="http://www.w3.org/2000/svg">
<defs>
<linearGradient id="paint0_linear_9_283" x1="16.4" y1="0.766667" x2="8.23425" y2="23.2306" gradientUnits="userSpaceOnUse">
<stop stop-color="#FE007B"/>
<stop offset="0.463771" stop-color="#FD6BDE"/>
<stop offset="0.755208" stop-color="#B62AE2" stop-opacity="0.9"/>
<stop offset="1" stop-color="#6B17D6"/>
</linearGradient>
</defs>
<path d="M9.63712 1.72986C11.044 0.699879 12.956 0.699879 14.3629 1.72986L22.2995 7.54026C23.3638 8.31946 23.9756 9.5733 23.9347 10.8917L23.6876 18.8581C23.6237 20.9196 22.0028 22.5945 19.9444 22.726L19.5213 22.753C17.3653 22.8906 15.4895 21.2914 15.2845 19.1407L14.9594 15.7308C14.8139 14.2051 13.5325 13.0401 12 13.0401C10.1609 13.0401 8.63979 14.4722 8.52914 16.308L8.35236 19.2407C8.22507 21.3525 6.47528 23 4.35961 23H4.27345C2.10579 23 0.332578 21.2734 0.274869 19.1065L0.0558015 10.8809C0.0208485 9.56843 0.632168 8.3224 1.69151 7.54685L9.63712 1.72986Z" fill="url(#paint0_linear_9_283)"/>
</svg>
