<svg width="7596" height="2826" viewBox="0 0 7596 2826" fill="none" xmlns="http://www.w3.org/2000/svg">
<path d="M3402 1564.8C3401 1564.8 3400.1 1564.8 3399.3 1564.8C3398.5 1564.8 3397.7 1564.7 3396.9 1564.5C3387.3 1562.7 3382.5 1554.1 3382.5 1538.7C3382.5 1526.3 3385.6 1509.6 3391.8 1488.6C3398 1467.6 3407.4 1442.3 3420 1412.7C3423.6 1404.3 3427.2 1394.9 3430.8 1384.5C3434.4 1373.9 3437.4 1363.3 3439.8 1352.7C3442.4 1342.1 3443.7 1332.5 3443.7 1323.9C3443.7 1317.7 3442.9 1312.3 3441.3 1307.7C3439.7 1302.9 3437 1299.4 3433.2 1297.2C3428.8 1294.4 3423.9 1292.4 3418.5 1291.2C3413.3 1289.8 3407.8 1289.1 3402 1289.1C3391.6 1289.1 3380.7 1291 3369.3 1294.8C3357.9 1298.4 3346.6 1303.5 3335.4 1310.1C3324.2 1316.7 3313.6 1324.4 3303.6 1333.2C3293.6 1342 3284.7 1351.6 3276.9 1362C3269.3 1372.2 3263.5 1382.8 3259.5 1393.8C3256.9 1401.2 3254.9 1408.2 3253.5 1414.8C3252.3 1421.4 3251.7 1427.6 3251.7 1433.4C3251.7 1445.4 3254.1 1455.5 3258.9 1463.7C3263.7 1471.7 3269.9 1477.7 3277.5 1481.7C3285.3 1485.7 3293.5 1487.7 3302.1 1487.7C3310.5 1487.7 3318.8 1485.7 3327 1481.7C3335.4 1477.5 3342.9 1472 3349.5 1465.2C3356.3 1458.4 3361.7 1450.9 3365.7 1442.7C3369.7 1434.5 3371.7 1426.2 3371.7 1417.8C3371.7 1411 3370.3 1405.1 3367.5 1400.1C3364.7 1394.9 3360 1392.3 3353.4 1392.3C3352 1392.3 3350.5 1392.4 3348.9 1392.6C3347.5 1392.8 3346 1393.2 3344.4 1393.8C3342.4 1394.4 3340.8 1394.7 3339.6 1394.7C3338.6 1394.7 3338.1 1394.4 3338.1 1393.8C3338.1 1393.4 3338.5 1392.8 3339.3 1392C3340.1 1391 3341.2 1390.2 3342.6 1389.6C3348.4 1387 3353.8 1385.7 3358.8 1385.7C3367 1385.7 3373.4 1388.8 3378 1395C3382.6 1401.2 3384.9 1408.7 3384.9 1417.5C3384.9 1427.1 3382.1 1436.5 3376.5 1445.7C3371.1 1454.9 3364 1463.3 3355.2 1470.9C3346.4 1478.3 3336.9 1484.3 3326.7 1488.9C3316.5 1493.3 3306.7 1495.5 3297.3 1495.5C3286.7 1495.5 3276.6 1492.6 3267 1486.8C3257.4 1481 3249.6 1472.9 3243.6 1462.5C3237.6 1451.9 3234.6 1439.6 3234.6 1425.6C3234.6 1419.2 3235.4 1412.5 3237 1405.5C3238.4 1398.5 3240.7 1391.3 3243.9 1383.9C3250.5 1368.7 3259.7 1354.8 3271.5 1342.2C3283.3 1329.6 3296.5 1318.8 3311.1 1309.8C3325.7 1300.6 3340.6 1293.6 3355.8 1288.8C3371 1283.8 3385.5 1281.3 3399.3 1281.3C3411.5 1281.3 3422.4 1283.4 3432 1287.6C3442.6 1292.2 3450.1 1299 3454.5 1308C3458.9 1317 3461.1 1327.1 3461.1 1338.3C3461.1 1350.5 3459 1363.5 3454.8 1377.3C3450.8 1390.9 3445.7 1403.9 3439.5 1416.3C3433.1 1429.3 3427.3 1442.9 3422.1 1457.1C3416.9 1471.1 3412.5 1484.5 3408.9 1497.3C3405.3 1509.9 3402.7 1520.8 3401.1 1530C3400.7 1532.2 3400.4 1534.2 3400.2 1536C3400 1538 3399.9 1539.8 3399.9 1541.4C3399.9 1550.8 3403 1555.5 3409.2 1555.5C3413.4 1555.5 3418.4 1553.7 3424.2 1550.1C3430 1546.7 3436 1542.4 3442.2 1537.2C3448.6 1532 3454.7 1526.6 3460.5 1521C3466.3 1515.2 3471.3 1510.1 3475.5 1505.7C3479.7 1501.1 3482.6 1497.9 3484.2 1496.1C3501 1476.5 3514.2 1456.9 3523.8 1437.3C3533.4 1417.5 3538.2 1399.7 3538.2 1383.9C3538.2 1380.3 3537.9 1376.7 3537.3 1373.1C3536.5 1367.9 3535.4 1364.3 3534 1362.3C3532.6 1360.3 3531 1359.1 3529.2 1358.7C3527.4 1358.3 3525.3 1357.9 3522.9 1357.5C3520.3 1357.1 3518.3 1356.3 3516.9 1355.1C3515.7 1353.9 3515.1 1352.8 3515.1 1351.8C3515.1 1349.8 3516.8 1348.8 3520.2 1348.8C3520.6 1348.8 3521.1 1348.9 3521.7 1349.1C3522.5 1349.1 3523.3 1349.2 3524.1 1349.4C3527.9 1350.4 3532.1 1352.6 3536.7 1356C3541.3 1359.4 3545.3 1364 3548.7 1369.8C3552.1 1375.6 3553.8 1382.9 3553.8 1391.7C3553.8 1399.9 3551.9 1409 3548.1 1419C3542.5 1433.6 3535.2 1448 3526.2 1462.2C3517.2 1476.2 3507.2 1489.4 3496.2 1501.8C3485.4 1514 3474.3 1524.9 3462.9 1534.5C3451.5 1543.9 3440.5 1551.3 3429.9 1556.7C3419.5 1562.1 3410.2 1564.8 3402 1564.8ZM3626.54 1414.2C3623.54 1414.2 3621.04 1413.2 3619.04 1411.2C3617.24 1409 3616.34 1406.4 3616.34 1403.4C3616.34 1399.6 3617.84 1396.3 3620.84 1393.5C3623.84 1390.7 3627.14 1389.3 3630.74 1389.3C3633.94 1389.3 3636.54 1390.3 3638.54 1392.3C3640.54 1394.3 3641.54 1396.7 3641.54 1399.5C3641.54 1403.3 3640.04 1406.7 3637.04 1409.7C3634.04 1412.7 3630.54 1414.2 3626.54 1414.2ZM3602.24 1536C3594.84 1536 3589.64 1533.9 3586.64 1529.7C3583.64 1525.3 3582.14 1520.3 3582.14 1514.7C3582.14 1511.7 3582.44 1508.7 3583.04 1505.7C3583.84 1502.5 3584.74 1499.6 3585.74 1497L3605.84 1445.7C3606.44 1444.1 3606.74 1442.7 3606.74 1441.5C3606.74 1439.5 3606.24 1437.8 3605.24 1436.4C3604.24 1434.8 3603.54 1433.7 3603.14 1433.1L3619.64 1432.5C3622.64 1432.3 3624.74 1432.7 3625.94 1433.7C3627.34 1434.5 3628.04 1435.5 3628.04 1436.7C3628.04 1437.9 3627.34 1440.1 3625.94 1443.3L3601.04 1501.8C3601.04 1501.8 3600.44 1503.1 3599.24 1505.7C3598.24 1508.1 3597.64 1509.7 3597.44 1510.5C3596.84 1513.5 3596.44 1515.4 3596.24 1516.2C3596.04 1517 3595.94 1517.5 3595.94 1517.7C3595.94 1517.9 3595.94 1518.7 3595.94 1520.1C3595.94 1522.7 3596.54 1524.9 3597.74 1526.7C3599.14 1528.5 3601.44 1529.4 3604.64 1529.4C3606.64 1529.4 3608.94 1528.8 3611.54 1527.6C3614.14 1526.4 3616.04 1525.2 3617.24 1524C3622.24 1518.8 3627.14 1512 3631.94 1503.6C3636.94 1495 3641.54 1486.5 3645.74 1478.1C3646.54 1476.1 3647.54 1475.1 3648.74 1475.1C3649.74 1475.1 3650.24 1475.8 3650.24 1477.2C3650.24 1478 3649.94 1479.2 3649.34 1480.8C3647.34 1485 3644.84 1490.2 3641.84 1496.4C3638.84 1502.6 3635.24 1508.8 3631.04 1515C3627.04 1521 3622.64 1526 3617.84 1530C3613.04 1534 3607.84 1536 3602.24 1536ZM3712.28 1536.3C3703.68 1536.3 3697.28 1534.1 3693.08 1529.7C3688.88 1525.3 3686.78 1519.8 3686.78 1513.2C3686.78 1510 3687.18 1506.9 3687.98 1503.9C3689.18 1499.3 3690.88 1494.2 3693.08 1488.6C3695.48 1482.8 3698.18 1476.9 3701.18 1470.9C3694.18 1484.5 3687.78 1496 3681.98 1505.4C3676.38 1514.6 3672.07 1520.6 3669.07 1523.4C3668.47 1524 3667.87 1524.3 3667.27 1524.3C3666.27 1524.3 3665.77 1523.8 3665.77 1522.8C3665.77 1522 3666.07 1521.2 3666.67 1520.4C3670.87 1514.8 3675.68 1507.1 3681.08 1497.3C3686.68 1487.5 3692.58 1476.6 3698.78 1464.6C3704.98 1452.4 3711.28 1440.1 3717.68 1427.7C3724.08 1415.3 3730.28 1403.6 3736.28 1392.6C3742.48 1381.6 3748.08 1372.3 3753.07 1364.7C3756.68 1359.3 3760.08 1355.5 3763.28 1353.3C3766.48 1350.9 3769.78 1349.7 3773.18 1349.7H3774.68C3776.48 1349.7 3778.48 1350 3780.68 1350.6C3783.08 1351.2 3785.28 1351.3 3787.28 1350.9C3784.68 1353.7 3780.68 1358.7 3775.28 1365.9C3770.08 1372.9 3764.18 1381.2 3757.58 1390.8C3751.18 1400.2 3744.68 1410.2 3738.08 1420.8C3731.68 1431.2 3725.98 1441.4 3720.98 1451.4C3716.18 1461 3711.88 1471.3 3708.08 1482.3C3704.48 1493.1 3702.68 1502.6 3702.68 1510.8C3702.68 1515.6 3703.48 1519.6 3705.08 1522.8C3706.68 1526 3709.38 1528 3713.18 1528.8C3719.58 1530.2 3728.18 1524.5 3738.98 1511.7C3743.18 1506.7 3747.38 1500.8 3751.58 1494C3755.78 1487 3759.08 1480.5 3761.48 1474.5C3764.88 1466.5 3766.58 1459.2 3766.58 1452.6C3766.58 1447.6 3765.28 1443.6 3762.68 1440.6C3760.28 1437.6 3756.18 1436.4 3750.38 1437H3749.18C3745.58 1437 3743.78 1436 3743.78 1434C3743.78 1433.2 3744.28 1432.4 3745.28 1431.6C3746.48 1430.8 3748.08 1430.4 3750.08 1430.4C3750.68 1430.4 3751.28 1430.5 3751.88 1430.7C3752.68 1430.7 3753.48 1430.8 3754.28 1431C3763.28 1432.4 3769.68 1436.1 3773.48 1442.1C3777.48 1447.9 3779.48 1454.6 3779.48 1462.2C3779.48 1463.8 3779.38 1465.6 3779.18 1467.6C3778.98 1469.4 3778.68 1471.4 3778.28 1473.6C3776.68 1481.8 3773.58 1490.2 3768.98 1498.8C3764.38 1507.2 3758.68 1514.6 3751.88 1521C3745.28 1527.4 3737.88 1531.7 3729.68 1533.9C3726.28 1534.7 3723.08 1535.3 3720.08 1535.7C3717.28 1536.1 3714.68 1536.3 3712.28 1536.3ZM3860.98 1537.2C3853.58 1537.2 3846.88 1534.8 3840.88 1530C3835.08 1525.2 3832.18 1517.9 3832.18 1508.1C3832.18 1499.1 3834.38 1489.5 3838.78 1479.3C3843.18 1468.9 3848.78 1459.8 3855.58 1452C3861.38 1445.2 3867.88 1439.6 3875.08 1435.2C3882.28 1430.8 3889.08 1428.6 3895.48 1428.6C3899.88 1428.6 3903.68 1429.8 3906.88 1432.2C3910.28 1434.8 3911.98 1438.5 3911.98 1443.3C3911.98 1448.3 3910.08 1453.8 3906.28 1459.8C3902.48 1465.8 3897.08 1471.4 3890.08 1476.6C3887.08 1478.8 3883.28 1480.9 3878.68 1482.9C3874.08 1484.9 3869.48 1486.6 3864.88 1488C3860.28 1489.2 3856.48 1489.8 3853.48 1489.8C3852.48 1492.2 3851.48 1495.4 3850.48 1499.4C3849.68 1503.4 3849.28 1507.5 3849.28 1511.7C3849.28 1516.7 3850.28 1521.2 3852.28 1525.2C3854.28 1529.2 3857.98 1531.2 3863.38 1531.2C3869.98 1531.2 3875.98 1529.3 3881.38 1525.5C3886.78 1521.7 3891.58 1517 3895.78 1511.4C3899.98 1505.6 3903.48 1499.8 3906.28 1494C3909.28 1488.2 3911.68 1483.3 3913.48 1479.3C3914.68 1476.5 3916.28 1475.1 3918.28 1475.1C3919.28 1475.1 3919.78 1475.6 3919.78 1476.6C3919.78 1477.4 3919.48 1478.4 3918.88 1479.6C3916.08 1485.6 3913.08 1492 3909.88 1498.8C3906.68 1505.4 3902.88 1511.7 3898.48 1517.7C3894.08 1523.5 3888.78 1528.2 3882.58 1531.8C3876.58 1535.4 3869.38 1537.2 3860.98 1537.2ZM3855.58 1484.4C3858.38 1484.4 3863.08 1483.4 3869.68 1481.4C3876.28 1479.2 3882.28 1475.8 3887.68 1471.2C3892.88 1466.6 3896.88 1461.6 3899.68 1456.2C3902.48 1450.6 3903.88 1445.9 3903.88 1442.1C3903.88 1437.7 3902.28 1435.5 3899.08 1435.5C3896.68 1435.5 3893.38 1437.1 3889.18 1440.3C3884.98 1443.5 3879.78 1448.9 3873.58 1456.5C3869.78 1461.3 3866.18 1466.5 3862.78 1472.1C3859.38 1477.7 3856.98 1481.8 3855.58 1484.4Z" fill="url(#paint0_linear_54_117)"/>
<path d="M153.923 2032.99C141.929 2032.99 133.267 2029 127.936 2021C122.605 2011.67 120.606 1999.68 121.939 1985.02L335.832 639.691C338.497 625.032 343.162 615.037 349.825 609.706C357.821 603.043 367.15 599.711 377.811 599.711C388.472 599.711 396.468 602.376 401.799 607.707C408.462 611.705 414.459 619.035 419.79 629.696L1165.42 1937.04H1129.43L1335.33 639.691C1338 625.032 1342.66 615.037 1349.33 609.706C1357.32 603.043 1367.98 599.711 1381.31 599.711C1393.3 599.711 1401.97 604.375 1407.3 613.704C1412.63 621.7 1413.96 633.028 1411.29 647.687L1197.4 1993.01C1196.07 2006.34 1192.07 2016.34 1185.41 2023C1178.74 2029.66 1170.08 2032.99 1159.42 2032.99C1148.76 2032.99 1140.1 2030.33 1133.43 2025C1128.1 2019.67 1122.11 2012.34 1115.44 2003.01L369.815 695.663H403.798L197.901 1993.01C196.568 2006.34 191.904 2016.34 183.908 2023C177.245 2029.66 167.25 2032.99 153.923 2032.99ZM1985.85 2036.99C1899.23 2036.99 1823.93 2020.33 1759.96 1987.02C1697.33 1953.7 1649.35 1906.39 1616.04 1845.09C1582.72 1782.45 1566.06 1707.82 1566.06 1621.2C1566.06 1518.58 1585.38 1423.3 1624.03 1335.34C1662.68 1246.05 1719.32 1174.09 1793.95 1119.45C1868.58 1064.81 1959.2 1037.49 2065.81 1037.49C2137.77 1037.49 2197.74 1050.82 2245.72 1077.47C2295.03 1102.79 2333.68 1137.44 2361.66 1181.42C2390.98 1225.4 2409.64 1275.37 2417.63 1331.34C2426.96 1387.32 2427.63 1444.62 2419.63 1503.26C2416.97 1521.92 2412.3 1535.24 2405.64 1543.24C2398.98 1549.9 2386.98 1553.23 2369.66 1553.23H1624.03L1636.03 1479.27H2379.65L2341.67 1503.26C2352.33 1431.29 2349.67 1365.99 2333.68 1307.36C2319.02 1248.72 2289.7 1202.08 2245.72 1167.43C2203.08 1131.44 2142.44 1113.45 2063.81 1113.45C1979.85 1113.45 1909.89 1132.78 1853.92 1171.42C1799.28 1208.74 1756.63 1256.72 1725.98 1315.35C1695.33 1372.66 1674.67 1431.96 1664.01 1493.26L1658.01 1529.25C1636.69 1657.18 1654.68 1761.13 1711.99 1841.09C1770.62 1919.72 1860.58 1959.03 1981.85 1959.03C2037.82 1959.03 2089.13 1952.37 2135.78 1939.04C2182.42 1924.38 2228.4 1900.39 2273.71 1867.08C2285.7 1857.75 2296.36 1853.08 2305.69 1853.08C2315.02 1851.75 2323.02 1853.75 2329.68 1859.08C2336.34 1863.08 2340.34 1869.08 2341.67 1877.07C2344.34 1885.07 2343.67 1894.4 2339.67 1905.06C2335.68 1914.39 2328.35 1923.05 2317.68 1931.04C2273.71 1964.36 2221.73 1990.35 2161.76 2009.01C2103.13 2027.66 2044.49 2036.99 1985.85 2036.99Z" fill="url(#paint1_linear_54_117)"/>
<path d="M4918.78 2085.99C4853.48 2085.99 4799.51 2073.33 4756.86 2048.01C4714.22 2021.36 4684.23 1984.04 4666.91 1936.07C4649.58 1888.09 4646.25 1830.79 4656.91 1764.15L4750.86 1174.45H4594.94C4581.62 1174.45 4570.95 1171.78 4562.96 1166.45C4554.96 1161.12 4550.96 1153.79 4550.96 1144.46C4550.96 1129.8 4555.63 1119.14 4564.96 1112.48C4574.29 1105.82 4585.61 1102.48 4598.94 1102.48H4760.86L4804.84 830.62C4807.5 815.961 4812.83 805.299 4820.83 798.636C4828.83 791.973 4839.49 788.641 4852.81 788.641C4866.14 788.641 4875.47 793.305 4880.8 802.634C4887.46 810.63 4889.46 822.624 4886.8 838.616L4844.82 1102.48H5124.68C5139.34 1102.48 5150 1105.15 5156.66 1110.48C5164.66 1114.48 5168.66 1121.81 5168.66 1132.47C5168.66 1145.8 5163.99 1156.46 5154.66 1164.45C5146.67 1171.12 5135.34 1174.45 5120.68 1174.45H4832.82L4742.87 1746.16C4728.21 1839.45 4736.2 1906.75 4766.86 1948.06C4798.84 1988.04 4851.48 2008.03 4924.78 2008.03C4956.76 2008.03 4981.42 2005.37 4998.74 2000.03C5016.06 1993.37 5029.39 1990.04 5038.72 1990.04C5046.72 1990.04 5052.71 1992.71 5056.71 1998.04C5062.04 2002.03 5064.71 2009.36 5064.71 2020.02C5064.71 2032.02 5062.71 2042.01 5058.71 2050.01C5056.04 2056.67 5049.38 2062 5038.72 2066C5025.39 2071.33 5006.74 2076 4982.75 2080C4960.09 2083.99 4938.77 2085.99 4918.78 2085.99ZM5255.24 2081.99C5241.91 2081.99 5231.92 2078 5225.25 2070C5219.92 2060.67 5218.59 2048.01 5221.25 2032.02L5363.18 1132.47C5365.85 1117.81 5371.18 1107.15 5379.17 1100.48C5387.17 1093.82 5397.83 1090.49 5411.16 1090.49C5423.15 1090.49 5432.48 1095.15 5439.14 1104.48C5445.81 1112.48 5447.81 1124.47 5445.14 1140.46L5415.16 1330.37H5393.17C5421.15 1250.41 5469.8 1189.11 5539.09 1146.46C5609.73 1103.82 5685.69 1082.49 5766.98 1082.49C5789.64 1082.49 5804.96 1085.16 5812.96 1090.49C5822.29 1094.49 5826.95 1103.15 5826.95 1116.48C5826.95 1129.8 5823.62 1139.8 5816.96 1146.46C5810.29 1151.79 5797.63 1155.79 5778.97 1158.46L5754.99 1160.45C5633.71 1169.78 5545.76 1205.77 5491.12 1268.4C5437.81 1331.04 5403.16 1411.66 5387.17 1510.28L5303.21 2040.01C5301.88 2053.34 5297.22 2063.34 5289.22 2070C5281.22 2078 5269.9 2081.99 5255.24 2081.99ZM5907.21 2081.99C5893.88 2081.99 5883.89 2078 5877.22 2070C5871.89 2060.67 5870.56 2048.01 5873.22 2032.02L6015.15 1132.47C6017.82 1117.81 6023.15 1107.15 6031.15 1100.48C6039.14 1093.82 6049.8 1090.49 6063.13 1090.49C6076.46 1090.49 6085.78 1095.15 6091.12 1104.48C6097.78 1112.48 6099.78 1124.47 6097.11 1140.46L5955.18 2040.01C5953.85 2053.34 5949.19 2063.34 5941.19 2070C5933.19 2078 5921.87 2081.99 5907.21 2081.99ZM6107.11 838.616C6088.45 838.616 6073.79 833.952 6063.13 824.623C6052.47 813.962 6047.14 799.969 6047.14 782.644C6047.14 755.991 6054.47 736.001 6069.13 722.674C6083.79 708.015 6103.78 700.685 6129.1 700.685C6147.75 700.685 6162.41 705.349 6173.07 714.678C6183.74 724.007 6189.07 738 6189.07 756.657C6189.07 781.978 6181.74 801.968 6167.08 816.627C6152.42 831.286 6132.43 838.616 6107.11 838.616ZM6692.64 2085.99C6603.35 2085.99 6529.39 2068.67 6470.75 2034.02C6413.45 1998.04 6370.8 1948.73 6342.82 1886.09C6314.83 1822.12 6300.84 1748.83 6300.84 1666.2C6300.84 1595.57 6310.17 1526.27 6328.82 1458.31C6347.48 1389.01 6376.13 1326.37 6414.78 1270.4C6454.76 1214.43 6505.4 1169.78 6566.71 1136.47C6629.34 1103.15 6703.97 1086.49 6790.59 1086.49C6842.57 1086.49 6892.54 1094.49 6940.52 1110.48C6989.83 1126.47 7031.14 1147.79 7064.46 1174.45C7076.45 1183.78 7085.11 1193.77 7090.44 1204.43C7095.77 1215.09 7097.77 1225.09 7096.44 1234.42C7095.11 1243.75 7091.11 1251.08 7084.45 1256.41C7079.12 1261.74 7072.45 1264.4 7064.46 1264.4C7056.46 1263.07 7047.13 1258.41 7036.47 1250.41C7000.49 1219.76 6961.84 1197.77 6920.53 1184.44C6880.55 1171.12 6835.9 1164.45 6786.6 1164.45C6715.96 1164.45 6655.33 1179.11 6604.69 1208.43C6554.05 1236.42 6512.73 1275.06 6480.75 1324.37C6448.76 1372.35 6424.78 1426.32 6408.78 1486.29C6394.13 1544.93 6386.8 1604.9 6386.8 1666.2C6386.8 1770.15 6410.78 1853.44 6458.76 1916.08C6508.07 1977.38 6587.36 2008.03 6696.64 2008.03C6733.96 2008.03 6772.6 2002.03 6812.58 1990.04C6853.9 1976.71 6892.54 1956.06 6928.52 1928.07C6937.85 1920.07 6947.18 1916.08 6956.51 1916.08C6965.84 1916.08 6973.17 1918.74 6978.5 1924.07C6985.16 1928.07 6989.83 1934.07 6992.49 1942.06C6995.16 1950.06 6995.16 1958.72 6992.49 1968.05C6989.83 1976.05 6984.5 1983.38 6976.5 1990.04C6939.19 2020.69 6894.54 2044.68 6842.57 2062C6791.93 2078 6741.95 2085.99 6692.64 2085.99Z" fill="url(#paint2_linear_54_117)"/>
<path d="M4361 1438.01C4361 1852.22 4025.21 2188.01 3611 2188.01C3196.79 2188.01 2861 1852.22 2861 1438.01C2861 1023.79 3196.79 688.008 3611 688.008C4025.21 688.008 4361 1023.79 4361 1438.01ZM2904.4 1438.01C2904.4 1828.25 3220.75 2144.61 3611 2144.61C4001.25 2144.61 4317.6 1828.25 4317.6 1438.01C4317.6 1047.76 4001.25 731.406 3611 731.406C3220.75 731.406 2904.4 1047.76 2904.4 1438.01Z" fill="url(#paint3_linear_54_117)"/>
<path d="M2960.99 1438.01C2960.99 1079.02 3252.01 788.008 3610.99 788.008C3969.98 788.008 4260.99 1079.02 4260.99 1438.01C4260.99 1796.99 3969.98 2088.01 3610.99 2088.01C3252.01 2088.01 2960.99 1796.99 2960.99 1438.01ZM4223.38 1438.01C4223.38 1099.79 3949.21 825.619 3610.99 825.619C3272.78 825.619 2998.6 1099.79 2998.6 1438.01C2998.6 1776.22 3272.78 2050.4 3610.99 2050.4C3949.21 2050.4 4223.38 1776.22 4223.38 1438.01Z" fill="url(#paint4_linear_54_117)"/>
<path d="M4161 1438C4161 1741.76 3914.76 1988 3611 1988C3307.24 1988 3061 1741.76 3061 1438C3061 1134.25 3307.24 888.004 3611 888.004C3914.76 888.004 4161 1134.25 4161 1438ZM3092.83 1438C3092.83 1724.18 3324.82 1956.18 3611 1956.18C3897.18 1956.18 4129.17 1724.18 4129.17 1438C4129.17 1151.82 3897.18 919.829 3611 919.829C3324.82 919.829 3092.83 1151.82 3092.83 1438Z" fill="url(#paint5_linear_54_117)"/>
<defs>
<linearGradient id="paint0_linear_54_117" x1="3582.1" y1="1245.53" x2="3890.22" y2="1593.3" gradientUnits="userSpaceOnUse">
<stop stop-color="#FF0000"/>
<stop offset="0.734375" stop-color="#C924B8"/>
</linearGradient>
<linearGradient id="paint1_linear_54_117" x1="1264.28" y1="-302.946" x2="3365.88" y2="685.925" gradientUnits="userSpaceOnUse">
<stop stop-color="#FF0000"/>
<stop offset="0.734375" stop-color="#C924B8"/>
</linearGradient>
<linearGradient id="paint2_linear_54_117" x1="5915.14" y1="-253.946" x2="8183.06" y2="958.24" gradientUnits="userSpaceOnUse">
<stop stop-color="#FF0000"/>
<stop offset="0.734375" stop-color="#C924B8"/>
</linearGradient>
<linearGradient id="paint3_linear_54_117" x1="3552.12" y1="524.371" x2="4695.93" y2="1069.05" gradientUnits="userSpaceOnUse">
<stop stop-color="#FF0000"/>
<stop offset="0.734375" stop-color="#C924B8"/>
</linearGradient>
<linearGradient id="paint4_linear_54_117" x1="3662.03" y1="2229.83" x2="2670.72" y2="1757.77" gradientUnits="userSpaceOnUse">
<stop stop-color="#FF0000"/>
<stop offset="0.734375" stop-color="#C924B8"/>
</linearGradient>
<linearGradient id="paint5_linear_54_117" x1="3567.82" y1="768.004" x2="4406.62" y2="1167.43" gradientUnits="userSpaceOnUse">
<stop stop-color="#FF0000"/>
<stop offset="0.734375" stop-color="#C924B8"/>
</linearGradient>
</defs>
</svg>
