<svg width="24" height="24" viewBox="0 0 24 24" fill="none" xmlns="http://www.w3.org/2000/svg">
<circle cx="12" cy="12" r="9" fill="black"/>
<path d="M2.99454 19.9945C2.74275 20.0611 2.53158 19.7972 2.6517 19.5661L4.242 16.5067C4.34203 16.3142 4.60691 16.2882 4.74242 16.4576L6.48573 18.6359C6.62124 18.8053 6.53784 19.058 6.32816 19.1134L2.99454 19.9945Z" fill="black"/>
<circle cx="8" cy="12" r="1" fill="white"/>
<circle cx="12" cy="12" r="1" fill="white"/>
<circle cx="16" cy="12" r="1" fill="white"/>
<circle cx="19" cy="5" r="5" fill="#FF5353"/>
<path d="M17.744 8L17.48 7.344L19.192 5.416C19.2827 5.32 19.376 5.21067 19.472 5.088C19.5733 4.96 19.6693 4.82933 19.76 4.696C19.8507 4.56267 19.9227 4.432 19.976 4.304C20.0347 4.17067 20.064 4.04533 20.064 3.928C20.064 3.75733 20.0293 3.61333 19.96 3.496C19.896 3.37333 19.8 3.28 19.672 3.216C19.5493 3.152 19.4 3.12 19.224 3.12C19.0693 3.12 18.9173 3.16533 18.768 3.256C18.6187 3.34667 18.4827 3.47467 18.36 3.64C18.2373 3.80533 18.1413 3.99733 18.072 4.216L17.408 3.8C17.4987 3.49067 17.6347 3.22667 17.816 3.008C18.0027 2.784 18.224 2.61333 18.48 2.496C18.7413 2.37867 19.024 2.32 19.328 2.32C19.6427 2.32 19.9227 2.38667 20.168 2.52C20.4133 2.648 20.6053 2.82933 20.744 3.064C20.8827 3.29333 20.952 3.56 20.952 3.864C20.952 3.98667 20.9387 4.112 20.912 4.24C20.8853 4.368 20.8427 4.50133 20.784 4.64C20.7253 4.77333 20.6507 4.91467 20.56 5.064C20.4693 5.208 20.36 5.36 20.232 5.52C20.1093 5.68 19.968 5.848 19.808 6.024L18.536 7.408L18.376 7.168H21.128V8H17.744Z" fill="white"/>
</svg>
