<svg width="24" height="24" viewBox="0 0 24 24" fill="none" xmlns="http://www.w3.org/2000/svg">
<path d="M22.9256 17.6717L19.4141 14.1206C19.9215 12.8855 20.1853 11.5578 20.1853 10.2066C20.1853 4.57873 15.6578 0 10.0925 0C4.52755 0 0 4.57873 0 10.2066C0 15.8347 4.52755 20.4135 10.0925 20.4135C11.5738 20.4135 13.0146 20.0901 14.336 19.4685L17.7428 22.9141C18.4354 23.6146 19.3555 24 20.3349 24C21.3143 24 22.235 23.6142 22.9273 22.9134C23.6189 22.2144 24 21.2836 24 20.2931C23.9997 19.3033 23.6185 18.3722 22.9256 17.6717ZM21.4707 21.4425C21.1572 21.7599 20.7458 21.9184 20.3345 21.9184C19.9232 21.9184 19.5122 21.7599 19.198 21.4425L14.6818 16.8745C13.3803 17.7925 11.7991 18.3319 10.0925 18.3319C5.65515 18.3319 2.05829 14.6941 2.05829 10.2066C2.05829 5.71908 5.65515 2.08156 10.0925 2.08156C14.5298 2.08156 18.127 5.71908 18.127 10.2066C18.127 11.792 17.6762 13.2706 16.8996 14.5216L21.4707 19.1444C22.0985 19.779 22.0985 20.8079 21.4707 21.4425Z" fill="#C4C4C4"/>
<path d="M10.0925 4.39557C6.92444 4.39557 4.34677 7.00237 4.34677 10.2066C4.34677 13.4108 6.92444 16.0176 10.0925 16.0176C13.2609 16.0176 15.8385 13.4108 15.8385 10.2066C15.8385 7.00237 13.2609 4.39557 10.0925 4.39557ZM10.0925 13.936C8.05924 13.936 6.40506 12.2632 6.40506 10.2066C6.40506 8.15 8.05924 6.47713 10.0925 6.47713C12.1261 6.47713 13.7803 8.15 13.7803 10.2066C13.7803 12.2632 12.1261 13.936 10.0925 13.936Z" fill="#C4C4C4"/>
</svg>
