<svg width="24" height="25" viewBox="0 0 24 25" fill="none" xmlns="http://www.w3.org/2000/svg">
<defs>
<linearGradient id="paint0_linear_148_106" x1="16.4" y1="1.06222" x2="7.25623" y2="24.6445" gradientUnits="userSpaceOnUse">
<stop stop-color="#FE007B"/>
<stop offset="0.463771" stop-color="#FD6BDE"/>
<stop offset="0.755208" stop-color="#B62AE2" stop-opacity="0.9"/>
<stop offset="1" stop-color="#6B17D6"/>
</linearGradient>
<linearGradient id="paint1_linear_148_106" x1="12.1994" y1="5.13368" x2="7.73463" y2="16.5195" gradientUnits="userSpaceOnUse">
<stop stop-color="#FE007B"/>
<stop offset="0.463771" stop-color="#FD6BDE"/>
<stop offset="0.755208" stop-color="#B62AE2" stop-opacity="0.9"/>
<stop offset="1" stop-color="#6B17D6"/>
</linearGradient>
</defs>
<path d="M22.9256 18.3089L19.4141 14.6788C19.9215 13.4163 20.1853 12.0591 20.1853 10.6778C20.1853 4.92492 15.6578 0.244445 10.0925 0.244445C4.52755 0.244445 0 4.92492 0 10.6778C0 16.4311 4.52755 21.1116 10.0925 21.1116C11.5738 21.1116 13.0146 20.781 14.336 20.1455L17.7428 23.6678C18.4354 24.3838 19.3555 24.7778 20.3349 24.7778C21.3143 24.7778 22.235 24.3834 22.9273 23.6671C23.6189 22.9525 24 22.001 24 20.9885C23.9997 19.9767 23.6185 19.0249 22.9256 18.3089ZM21.4707 22.1634C21.1572 22.4879 20.7458 22.65 20.3345 22.65C19.9232 22.65 19.5122 22.4879 19.198 22.1634L14.6818 17.4939C13.3803 18.4323 11.7991 18.9837 10.0925 18.9837C5.65515 18.9837 2.05829 15.265 2.05829 10.6778C2.05829 6.09061 5.65515 2.37226 10.0925 2.37226C14.5298 2.37226 18.127 6.09061 18.127 10.6778C18.127 12.2985 17.6762 13.81 16.8996 15.0888L21.4707 19.8143C22.0985 20.4629 22.0985 21.5148 21.4707 22.1634Z" fill="url(#paint0_linear_148_106)"/>
<path d="M10.0924 4.73767C6.92434 4.73767 4.34668 7.4024 4.34668 10.6778C4.34668 13.9532 6.92434 16.618 10.0924 16.618C13.2608 16.618 15.8385 13.9532 15.8385 10.6778C15.8385 7.4024 13.2608 4.73767 10.0924 4.73767ZM10.0924 14.4901C8.05915 14.4901 6.40497 12.7801 6.40497 10.6778C6.40497 8.57554 8.05915 6.86548 10.0924 6.86548C12.126 6.86548 13.7802 8.57554 13.7802 10.6778C13.7802 12.7801 12.126 14.4901 10.0924 14.4901Z" fill="url(#paint1_linear_148_106)"/>
</svg>
