<svg width="40" height="40" viewBox="0 0 40 40" fill="none" xmlns="http://www.w3.org/2000/svg">
<defs>
<linearGradient id="paint0_linear_246_17" x1="23.6667" y1="10.6667" x2="16.3333" y2="30" gradientUnits="userSpaceOnUse">
<stop stop-color="#FE007B"/>
<stop offset="0.463771" stop-color="#FD6BDE"/>
<stop offset="0.755208" stop-color="#B62AE2" stop-opacity="0.9"/>
<stop offset="1" stop-color="#6B17D6"/>
</linearGradient>
<linearGradient id="paint1_linear_246_17" x1="27.3333" y1="1.33333" x2="12.6667" y2="40" gradientUnits="userSpaceOnUse">
<stop stop-color="#FE007B"/>
<stop offset="0.463771" stop-color="#FD6BDE"/>
<stop offset="0.755208" stop-color="#B62AE2" stop-opacity="0.9"/>
<stop offset="1" stop-color="#6B17D6"/>
</linearGradient>
</defs>
<path d="M27.6407 20.98C27.6818 20.66 27.7127 20.34 27.7127 20C27.7127 19.66 27.6818 19.34 27.6407 19.02L29.8099 17.37C30.0052 17.22 30.0566 16.95 29.9333 16.73L27.8772 13.27C27.7538 13.05 27.4762 12.97 27.25 13.05L24.6902 14.05C24.1556 13.65 23.5799 13.32 22.9528 13.07L22.5621 10.42C22.5313 10.18 22.3154 10 22.0584 10H17.9462C17.6892 10 17.4733 10.18 17.4424 10.42L17.0518 13.07C16.4246 13.32 15.8489 13.66 15.3143 14.05L12.7545 13.05C12.518 12.96 12.2507 13.05 12.1274 13.27L10.0713 16.73C9.93763 16.95 9.99931 17.22 10.1946 17.37L12.3638 19.02C12.3227 19.34 12.2919 19.67 12.2919 20C12.2919 20.33 12.3227 20.66 12.3638 20.98L10.1946 22.63C9.99931 22.78 9.94791 23.05 10.0713 23.27L12.1274 26.73C12.2507 26.95 12.5283 27.03 12.7545 26.95L15.3143 25.95C15.8489 26.35 16.4246 26.68 17.0518 26.93L17.4424 29.58C17.4733 29.82 17.6892 30 17.9462 30H22.0584C22.3154 30 22.5313 29.82 22.5621 29.58L22.9528 26.93C23.5799 26.68 24.1556 26.34 24.6902 25.95L27.25 26.95C27.4865 27.04 27.7538 26.95 27.8772 26.73L29.9333 23.27C30.0566 23.05 30.0052 22.78 29.8099 22.63L27.6407 20.98ZM20.0023 23.5C18.0181 23.5 16.4041 21.93 16.4041 20C16.4041 18.07 18.0181 16.5 20.0023 16.5C21.9864 16.5 23.6005 18.07 23.6005 20C23.6005 21.93 21.9864 23.5 20.0023 23.5Z" fill="url(#paint0_linear_246_17)"/>
<rect x="0.5" y="0.5" width="39" height="39" rx="6.5" stroke="url(#paint1_linear_246_17)"/>
</svg>
