<svg width="20" height="21" viewBox="0 0 20 21" fill="none" xmlns="http://www.w3.org/2000/svg">
<defs>
<linearGradient id="paint0_linear_292_72" x1="13.6667" y1="0.68116" x2="6.05312" y2="20.3262" gradientUnits="userSpaceOnUse">
<stop stop-color="#FE007B"/>
<stop offset="0.463771" stop-color="#FD6BDE"/>
<stop offset="0.755208" stop-color="#B62AE2" stop-opacity="0.9"/>
<stop offset="1" stop-color="#6B17D6"/>
</linearGradient>
</defs>
<path d="M17.6407 11.2187C17.6818 10.8917 17.7127 10.5648 17.7127 10.2174C17.7127 9.87 17.6818 9.54304 17.6407 9.21609L19.8099 7.53022C20.0052 7.37696 20.0566 7.10109 19.9333 6.8763L17.8772 3.34109C17.7538 3.1163 17.4762 3.03457 17.25 3.1163L14.6902 4.13804C14.1556 3.72935 13.5799 3.39217 12.9528 3.13674L12.5621 0.429131C12.5313 0.183913 12.3154 0 12.0584 0H7.94616C7.68915 0 7.47326 0.183913 7.44242 0.429131L7.05176 3.13674C6.42464 3.39217 5.84894 3.73957 5.31435 4.13804L2.7545 3.1163C2.51804 3.02435 2.25075 3.1163 2.12738 3.34109L0.0712765 6.8763C-0.0623704 7.10109 -0.000687048 7.37696 0.194643 7.53022L2.36384 9.21609C2.32271 9.54304 2.29187 9.88022 2.29187 10.2174C2.29187 10.5546 2.32271 10.8917 2.36384 11.2187L0.194643 12.9046C-0.000687048 13.0578 -0.0520898 13.3337 0.0712765 13.5585L2.12738 17.0937C2.25075 17.3185 2.52832 17.4002 2.7545 17.3185L5.31435 16.2967C5.84894 16.7054 6.42464 17.0426 7.05176 17.298L7.44242 20.0057C7.47326 20.2509 7.68915 20.4348 7.94616 20.4348H12.0584C12.3154 20.4348 12.5313 20.2509 12.5621 20.0057L12.9528 17.298C13.5799 17.0426 14.1556 16.6952 14.6902 16.2967L17.25 17.3185C17.4865 17.4104 17.7538 17.3185 17.8772 17.0937L19.9333 13.5585C20.0566 13.3337 20.0052 13.0578 19.8099 12.9046L17.6407 11.2187ZM10.0023 13.7935C8.01813 13.7935 6.40408 12.1893 6.40408 10.2174C6.40408 8.24543 8.01813 6.6413 10.0023 6.6413C11.9864 6.6413 13.6005 8.24543 13.6005 10.2174C13.6005 12.1893 11.9864 13.7935 10.0023 13.7935Z" fill="url(#paint0_linear_292_72)"/>
</svg>
