<svg width="60" height="60" viewBox="0 0 60 60" fill="none" xmlns="http://www.w3.org/2000/svg">
  <defs>
    <linearGradient id="paint0_linear_45_8" x1="41" y1="2" x2="19" y2="60" gradientUnits="userSpaceOnUse">
      <stop stop-color="#FE007B" />
      <stop offset="0.463771" stop-color="#FD6BDE" />
      <stop offset="0.755208" stop-color="#B62AE2" stop-opacity="0.9" />
      <stop offset="1" stop-color="#6B17D6" />
    </linearGradient>
    <linearGradient id="paint1_linear_45_8" x1="40.2667" y1="3.86667" x2="19.7333" y2="58" gradientUnits="userSpaceOnUse">
      <stop stop-color="#FE007B" />
      <stop offset="0.463771" stop-color="#FD6BDE" />
      <stop offset="0.755208" stop-color="#B62AE2" stop-opacity="0.9" />
      <stop offset="1" stop-color="#6B17D6" />
    </linearGradient>
  </defs>
  <path d="M60 30C60 46.5685 46.5685 60 30 60C13.4315 60 0 46.5685 0 30C0 13.4315 13.4315 0 30 0C46.5685 0 60 13.4315 60 30ZM1.99418 30C1.99418 45.4672 14.5328 58.0058 30 58.0058C45.4672 58.0058 58.0058 45.4672 58.0058 30C58.0058 14.5328 45.4672 1.99418 30 1.99418C14.5328 1.99418 1.99418 14.5328 1.99418 30Z" fill="url(#paint0_linear_45_8)" />
  <circle cx="30" cy="30" r="28" fill="url(#paint1_linear_45_8)" fill-opacity="0.25" />
</svg>