<svg width="40" height="40" viewBox="0 0 40 40" fill="none" xmlns="http://www.w3.org/2000/svg">
<defs>
<linearGradient id="paint0_linear_246_19" x1="23.6682" y1="13.4625" x2="19.8277" y2="27.9281" gradientUnits="userSpaceOnUse">
<stop stop-color="#FE007B"/>
<stop offset="0.463771" stop-color="#FD6BDE"/>
<stop offset="0.755208" stop-color="#B62AE2" stop-opacity="0.9"/>
<stop offset="1" stop-color="#6B17D6"/>
</linearGradient>
<linearGradient id="paint1_linear_246_19" x1="21.2833" y1="16.7333" x2="18.7167" y2="23.5" gradientUnits="userSpaceOnUse">
<stop stop-color="#FE007B"/>
<stop offset="0.463771" stop-color="#FD6BDE"/>
<stop offset="0.755208" stop-color="#B62AE2" stop-opacity="0.9"/>
<stop offset="1" stop-color="#6B17D6"/>
</linearGradient>
<linearGradient id="paint2_linear_246_19" x1="27.3333" y1="1.33333" x2="12.6667" y2="40" gradientUnits="userSpaceOnUse">
<stop stop-color="#FE007B"/>
<stop offset="0.463771" stop-color="#FD6BDE"/>
<stop offset="0.755208" stop-color="#B62AE2" stop-opacity="0.9"/>
<stop offset="1" stop-color="#6B17D6"/>
</linearGradient>
</defs>
<path d="M29.8701 19.5C29.2301 18.39 25.7101 12.82 19.7301 13C14.2001 13.14 11.0001 18 10.1301 19.5C10.0423 19.652 9.99609 19.8245 9.99609 20C9.99609 20.1755 10.0423 20.348 10.1301 20.5C10.7601 21.59 14.1301 27 20.0201 27H20.2701C25.8001 26.86 29.0101 22 29.8701 20.5C29.9578 20.348 30.004 20.1755 30.004 20C30.004 19.8245 29.9578 19.652 29.8701 19.5ZM20.2201 25C15.9101 25.1 13.1001 21.41 12.2201 20C13.2201 18.39 15.8301 15.1 19.8301 15C24.1201 14.89 26.9401 18.59 27.8301 20C26.8001 21.61 24.2201 24.9 20.2201 25Z" fill="url(#paint0_linear_246_19)"/>
<path d="M20 16.5C19.3078 16.5 18.6311 16.7053 18.0555 17.0899C17.4799 17.4744 17.0313 18.0211 16.7664 18.6606C16.5015 19.3001 16.4322 20.0039 16.5673 20.6828C16.7023 21.3618 17.0356 21.9854 17.5251 22.4749C18.0146 22.9644 18.6383 23.2977 19.3172 23.4327C19.9961 23.5678 20.6999 23.4985 21.3394 23.2336C21.9789 22.9687 22.5256 22.5201 22.9101 21.9445C23.2947 21.3689 23.5 20.6922 23.5 20C23.5 19.0717 23.1313 18.1815 22.4749 17.5251C21.8185 16.8687 20.9283 16.5 20 16.5ZM20 21.5C19.7033 21.5 19.4133 21.412 19.1666 21.2472C18.92 21.0824 18.7277 20.8481 18.6142 20.574C18.5007 20.2999 18.4709 19.9983 18.5288 19.7074C18.5867 19.4164 18.7296 19.1491 18.9393 18.9393C19.1491 18.7296 19.4164 18.5867 19.7074 18.5288C19.9983 18.4709 20.2999 18.5006 20.574 18.6142C20.8481 18.7277 21.0824 18.92 21.2472 19.1666C21.412 19.4133 21.5 19.7033 21.5 20C21.5 20.3978 21.342 20.7794 21.0607 21.0607C20.7794 21.342 20.3978 21.5 20 21.5Z" fill="url(#paint1_linear_246_19)"/>
<rect x="0.5" y="0.5" width="39" height="39" rx="6.5" stroke="url(#paint2_linear_246_19)"/>
</svg>
